{
  "asset": {
    "generator": "glTF-Transform v4.1.3",
    "version": "2.0"
  },
  "accessors": [
    {
      "type": "SCALAR",
      "componentType": 5123,
      "count": 36,
      "bufferView": 0,
      "byteOffset": 0
    },
    {
      "type": "SCALAR",
      "componentType": 5123,
      "count": 24,
      "bufferView": 0,
      "byteOffset": 72
    },
    {
      "type": "VEC3",
      "componentType": 5126,
      "count": 24,
      "max": [
        0.1875,
        2,
        0.1875
      ],
      "min": [
        0,
        0,
        -0.8125
      ],
      "bufferView": 1,
      "byteOffset": 0
    },
    {
      "type": "VEC3",
      "componentType": 5126,
      "count": 24,
      "bufferView": 1,
      "byteOffset": 12
    },
    {
      "type": "VEC2",
      "componentType": 5126,
      "count": 24,
      "bufferView": 1,
      "byteOffset": 24
    },
    {
      "type": "VEC3",
      "componentType": 5126,
      "count": 24,
      "max": [
        0,
        2,
        0.1875
      ],
      "min": [
        -0.1875,
        0,
        -0.8125
      ],
      "bufferView": 2,
      "byteOffset": 0
    },
    {
      "type": "VEC2",
      "componentType": 5126,
      "count": 24,
      "bufferView": 2,
      "byteOffset": 12
    },
    {
      "type": "VEC3",
      "componentType": 5126,
      "count": 16,
      "max": [
        0.125,
        0.125,
        1
      ],
      "min": [
        -1.5,
        0,
        0
      ],
      "bufferView": 3,
      "byteOffset": 0
    },
    {
      "type": "VEC2",
      "componentType": 5126,
      "count": 16,
      "bufferView": 3,
      "byteOffset": 12
    },
    {
      "type": "VEC3",
      "componentType": 5126,
      "count": 16,
      "bufferView": 3,
      "byteOffset": 20
    },
    {
      "type": "VEC3",
      "componentType": 5126,
      "count": 24,
      "max": [
        0.28125,
        0,
        0.28125
      ],
      "min": [
        0.03125,
        -0.125,
        -0.28125
      ],
      "bufferView": 4,
      "byteOffset": 0
    },
    {
      "type": "VEC2",
      "componentType": 5126,
      "count": 24,
      "bufferView": 4,
      "byteOffset": 12
    },
    {
      "type": "VEC3",
      "componentType": 5126,
      "count": 24,
      "max": [
        -0.03125,
        0,
        0.28125
      ],
      "min": [
        -0.28125,
        -0.125,
        -0.28125
      ],
      "bufferView": 5,
      "byteOffset": 0
    },
    {
      "type": "VEC3",
      "componentType": 5126,
      "count": 24,
      "max": [
        0.09375,
        0.125,
        0.28125
      ],
      "min": [
        -0.15625,
        0,
        -0.28125
      ],
      "bufferView": 6,
      "byteOffset": 0
    },
    {
      "type": "VEC3",
      "componentType": 5126,
      "count": 24,
      "max": [
        0.125,
        0.0625,
        0.28125
      ],
      "min": [
        -0.125,
        -0.0625,
        -0.28125
      ],
      "bufferView": 7,
      "byteOffset": 0
    },
    {
      "type": "VEC2",
      "componentType": 5126,
      "count": 24,
      "bufferView": 8,
      "byteOffset": 0
    },
    {
      "type": "VEC3",
      "componentType": 5126,
      "count": 24,
      "max": [
        0.28125,
        0,
        0.28125
      ],
      "min": [
        -0.28125,
        -0.125,
        0.03125
      ],
      "bufferView": 9,
      "byteOffset": 0
    },
    {
      "type": "VEC2",
      "componentType": 5126,
      "count": 24,
      "bufferView": 9,
      "byteOffset": 12
    },
    {
      "type": "VEC3",
      "componentType": 5126,
      "count": 24,
      "max": [
        0.28125,
        0,
        -0.03125
      ],
      "min": [
        -0.28125,
        -0.125,
        -0.28125
      ],
      "bufferView": 10,
      "byteOffset": 0
    },
    {
      "type": "VEC3",
      "componentType": 5126,
      "count": 24,
      "max": [
        0.28125,
        0.125,
        0.09375
      ],
      "min": [
        -0.28125,
        0,
        -0.15625
      ],
      "bufferView": 11,
      "byteOffset": 0
    },
    {
      "type": "VEC2",
      "componentType": 5126,
      "count": 24,
      "bufferView": 12,
      "byteOffset": 0
    }
  ],
  "bufferViews": [
    {
      "buffer": 0,
      "byteOffset": 0,
      "byteLength": 120,
      "target": 34963
    },
    {
      "buffer": 0,
      "byteOffset": 120,
      "byteLength": 768,
      "byteStride": 32,
      "target": 34962
    },
    {
      "buffer": 0,
      "byteOffset": 888,
      "byteLength": 480,
      "byteStride": 20,
      "target": 34962
    },
    {
      "buffer": 0,
      "byteOffset": 1368,
      "byteLength": 512,
      "byteStride": 32,
      "target": 34962
    },
    {
      "buffer": 0,
      "byteOffset": 1880,
      "byteLength": 480,
      "byteStride": 20,
      "target": 34962
    },
    {
      "buffer": 0,
      "byteOffset": 2360,
      "byteLength": 288,
      "byteStride": 12,
      "target": 34962
    },
    {
      "buffer": 0,
      "byteOffset": 2648,
      "byteLength": 288,
      "byteStride": 12,
      "target": 34962
    },
    {
      "buffer": 0,
      "byteOffset": 2936,
      "byteLength": 288,
      "byteStride": 12,
      "target": 34962
    },
    {
      "buffer": 0,
      "byteOffset": 3224,
      "byteLength": 192,
      "byteStride": 8,
      "target": 34962
    },
    {
      "buffer": 0,
      "byteOffset": 3416,
      "byteLength": 480,
      "byteStride": 20,
      "target": 34962
    },
    {
      "buffer": 0,
      "byteOffset": 3896,
      "byteLength": 288,
      "byteStride": 12,
      "target": 34962
    },
    {
      "buffer": 0,
      "byteOffset": 4184,
      "byteLength": 288,
      "byteStride": 12,
      "target": 34962
    },
    {
      "buffer": 0,
      "byteOffset": 4472,
      "byteLength": 192,
      "byteStride": 8,
      "target": 34962
    }
  ],
  "samplers": [
    {
      "magFilter": 9728,
      "minFilter": 9728,
      "wrapS": 33071,
      "wrapT": 33071
    }
  ],
  "textures": [
    {
      "source": 0,
      "sampler": 0
    }
  ],
  "images": [
    {
      "mimeType": "image/png",
      "uri": "baseColor.png"
    }
  ],
  "buffers": [
    {
      "uri": "ingot-shelf-named-nodes.bin",
      "byteLength": 4664
    }
  ],
  "materials": [
    {
      "alphaMode": "MASK",
      "alphaCutoff": 0.05,
      "pbrMetallicRoughness": {
        "metallicFactor": 0,
        "baseColorTexture": {
          "index": 0
        }
      }
    }
  ],
  "meshes": [
    {
      "primitives": [
        {
          "attributes": {
            "POSITION": 2,
            "NORMAL": 3,
            "TEXCOORD_0": 4
          },
          "mode": 4,
          "material": 0,
          "indices": 0
        }
      ]
    },
    {
      "primitives": [
        {
          "attributes": {
            "POSITION": 5,
            "TEXCOORD_0": 6,
            "NORMAL": 3
          },
          "mode": 4,
          "material": 0,
          "indices": 0
        }
      ]
    },
    {
      "primitives": [
        {
          "attributes": {
            "POSITION": 7,
            "TEXCOORD_0": 8,
            "NORMAL": 9
          },
          "mode": 4,
          "material": 0,
          "indices": 1
        }
      ]
    },
    {
      "primitives": [
        {
          "attributes": {
            "POSITION": 7,
            "NORMAL": 9,
            "TEXCOORD_0": 8
          },
          "mode": 4,
          "material": 0,
          "indices": 1
        }
      ]
    },
    {
      "primitives": [
        {
          "attributes": {
            "POSITION": 10,
            "TEXCOORD_0": 11,
            "NORMAL": 3
          },
          "mode": 4,
          "material": 0,
          "indices": 0
        }
      ]
    },
    {
      "primitives": [
        {
          "attributes": {
            "POSITION": 12,
            "NORMAL": 3,
            "TEXCOORD_0": 11
          },
          "mode": 4,
          "material": 0,
          "indices": 0
        }
      ]
    },
    {
      "primitives": [
        {
          "attributes": {
            "POSITION": 13,
            "NORMAL": 3,
            "TEXCOORD_0": 11
          },
          "mode": 4,
          "material": 0,
          "indices": 0
        }
      ]
    },
    {
      "primitives": [
        {
          "attributes": {
            "POSITION": 14,
            "NORMAL": 3,
            "TEXCOORD_0": 11
          },
          "mode": 4,
          "material": 0,
          "indices": 0
        }
      ]
    },
    {
      "primitives": [
        {
          "attributes": {
            "TEXCOORD_0": 15,
            "POSITION": 14,
            "NORMAL": 3
          },
          "mode": 4,
          "material": 0,
          "indices": 0
        }
      ]
    },
    {
      "primitives": [
        {
          "attributes": {
            "POSITION": 14,
            "NORMAL": 3,
            "TEXCOORD_0": 15
          },
          "mode": 4,
          "material": 0,
          "indices": 0
        }
      ]
    },
    {
      "primitives": [
        {
          "attributes": {
            "POSITION": 16,
            "TEXCOORD_0": 17,
            "NORMAL": 3
          },
          "mode": 4,
          "material": 0,
          "indices": 0
        }
      ]
    },
    {
      "primitives": [
        {
          "attributes": {
            "POSITION": 18,
            "NORMAL": 3,
            "TEXCOORD_0": 17
          },
          "mode": 4,
          "material": 0,
          "indices": 0
        }
      ]
    },
    {
      "primitives": [
        {
          "attributes": {
            "POSITION": 19,
            "NORMAL": 3,
            "TEXCOORD_0": 17
          },
          "mode": 4,
          "material": 0,
          "indices": 0
        }
      ]
    },
    {
      "primitives": [
        {
          "attributes": {
            "TEXCOORD_0": 20,
            "POSITION": 14,
            "NORMAL": 3
          },
          "mode": 4,
          "material": 0,
          "indices": 0
        }
      ]
    },
    {
      "primitives": [
        {
          "attributes": {
            "POSITION": 14,
            "NORMAL": 3,
            "TEXCOORD_0": 20
          },
          "mode": 4,
          "material": 0,
          "indices": 0
        }
      ]
    }
  ],
  "nodes": [
    {
      "name": "cube",
      "translation": [
        0.8125,
        0,
        0.8125
      ],
      "mesh": 0
    },
    {
      "name": "cube",
      "translation": [
        -0.8125,
        0,
        0.8125
      ],
      "mesh": 1
    },
    {
      "name": "cube",
      "translation": [
        0.6875,
        0.3125,
        0
      ],
      "mesh": 2
    },
    {
      "name": "cube",
      "translation": [
        0.6875,
        0.875,
        0
      ],
      "mesh": 3
    },
    {
      "name": "cube",
      "translation": [
        0.6875,
        1.5,
        0
      ],
      "mesh": 3
    },
    {
      "name": "cube",
      "translation": [
        0.375,
        0.5625,
        0.46875
      ],
      "rotation": [
        0,
        0.19509032201612825,
        0,
        0.9807852804032304
      ],
      "mesh": 4
    },
    {
      "name": "cube",
      "translation": [
        0.375,
        0.5625,
        0.46875
      ],
      "rotation": [
        0,
        0.19509032201612825,
        0,
        0.9807852804032304
      ],
      "mesh": 5
    },
    {
      "name": "cube",
      "translation": [
        0.375,
        0.5625,
        0.46875
      ],
      "rotation": [
        0,
        0.19509032201612825,
        0,
        0.9807852804032304
      ],
      "mesh": 6
    },
    {
      "name": "cube",
      "translation": [
        -0.21875,
        1.6875,
        0.46875
      ],
      "mesh": 7
    },
    {
      "name": "cube",
      "translation": [
        -0.53125,
        1.6875,
        0.46875
      ],
      "mesh": 7
    },
    {
      "name": "cube",
      "translation": [
        -0.40625,
        1.8125,
        0.46875
      ],
      "mesh": 7
    },
    {
      "name": "cube",
      "translation": [
        0.53125,
        1.6875,
        0.46875
      ],
      "mesh": 8
    },
    {
      "name": "cube",
      "translation": [
        0.21875,
        1.6875,
        0.46875
      ],
      "mesh": 9
    },
    {
      "name": "cube",
      "translation": [
        0.34375,
        1.8125,
        0.46875
      ],
      "mesh": 9
    },
    {
      "name": "cube",
      "translation": [
        -0.375,
        1.125,
        0.46875
      ],
      "rotation": [
        0,
        0.3826834323650898,
        0,
        0.9238795325112867
      ],
      "mesh": 10
    },
    {
      "name": "cube",
      "translation": [
        -0.375,
        1.125,
        0.46875
      ],
      "rotation": [
        0,
        0.3826834323650898,
        0,
        0.9238795325112867
      ],
      "mesh": 11
    },
    {
      "name": "cube",
      "translation": [
        -0.375,
        1.125,
        0.46875
      ],
      "rotation": [
        0,
        0.3826834323650898,
        0,
        0.9238795325112867
      ],
      "mesh": 12
    },
    {
      "name": "cube",
      "translation": [
        0.53125,
        1.0625,
        0.46875
      ],
      "mesh": 13
    },
    {
      "name": "cube",
      "translation": [
        0.21875,
        1.0625,
        0.46875
      ],
      "mesh": 14
    },
    {
      "name": "cube",
      "translation": [
        0.34375,
        1.1875,
        0.46875
      ],
      "mesh": 14
    },
    {
      "name": "cube",
      "translation": [
        -0.21875,
        0.5,
        0.46875
      ],
      "mesh": 14
    },
    {
      "name": "cube",
      "translation": [
        -0.53125,
        0.5,
        0.46875
      ],
      "mesh": 14
    },
    {
      "name": "cube",
      "translation": [
        -0.40625,
        0.625,
        0.46875
      ],
      "mesh": 14
    }
  ],
  "scenes": [
    {
      "name": "blockbench_export",
      "nodes": [
        0,
        1,
        2,
        3,
        4,
        5,
        6,
        7,
        8,
        9,
        10,
        11,
        12,
        13,
        14,
        15,
        16,
        17,
        18,
        19,
        20,
        21,
        22
      ]
    }
  ],
  "scene": 0
}