{
  "asset": {
    "generator": "glTF-Transform v4.1.3",
    "version": "2.0"
  },
  "accessors": [
    {
      "type": "SCALAR",
      "componentType": 5123,
      "count": 30,
      "bufferView": 0,
      "byteOffset": 0
    },
    {
      "type": "SCALAR",
      "componentType": 5123,
      "count": 24,
      "bufferView": 0,
      "byteOffset": 60
    },
    {
      "type": "SCALAR",
      "componentType": 5123,
      "count": 36,
      "bufferView": 0,
      "byteOffset": 108
    },
    {
      "type": "SCALAR",
      "componentType": 5123,
      "count": 6,
      "bufferView": 0,
      "byteOffset": 180
    },
    {
      "type": "SCALAR",
      "componentType": 5123,
      "count": 12,
      "bufferView": 0,
      "byteOffset": 192
    },
    {
      "type": "VEC3",
      "componentType": 5126,
      "count": 20,
      "max": [
        0.25,
        1.5,
        0.1875
      ],
      "min": [
        -0.25,
        0.75,
        -0.1875
      ],
      "bufferView": 1,
      "byteOffset": 0
    },
    {
      "type": "VEC3",
      "componentType": 5126,
      "count": 20,
      "bufferView": 1,
      "byteOffset": 12
    },
    {
      "type": "VEC2",
      "componentType": 5126,
      "count": 20,
      "bufferView": 1,
      "byteOffset": 24
    },
    {
      "type": "VEC3",
      "componentType": 5126,
      "count": 16,
      "max": [
        0.09375,
        0.3125,
        0.09375
      ],
      "min": [
        -0.09375,
        -0.3125,
        -0.09375
      ],
      "bufferView": 2,
      "byteOffset": 0
    },
    {
      "type": "VEC2",
      "componentType": 5126,
      "count": 16,
      "bufferView": 2,
      "byteOffset": 12
    },
    {
      "type": "VEC3",
      "componentType": 5126,
      "count": 16,
      "bufferView": 2,
      "byteOffset": 20
    },
    {
      "type": "VEC3",
      "componentType": 5126,
      "count": 24,
      "max": [
        0.3125,
        0.0625,
        0.0625
      ],
      "min": [
        -0.3125,
        -0.0625,
        -0.0625
      ],
      "bufferView": 3,
      "byteOffset": 0
    },
    {
      "type": "VEC2",
      "componentType": 5126,
      "count": 24,
      "bufferView": 3,
      "byteOffset": 12
    },
    {
      "type": "VEC3",
      "componentType": 5126,
      "count": 24,
      "bufferView": 3,
      "byteOffset": 20
    },
    {
      "type": "VEC3",
      "componentType": 5126,
      "count": 24,
      "max": [
        0.0625,
        0.0625,
        0.3125
      ],
      "min": [
        -0.0625,
        -0.0625,
        -0.3125
      ],
      "bufferView": 4,
      "byteOffset": 0
    },
    {
      "type": "VEC2",
      "componentType": 5126,
      "count": 24,
      "bufferView": 4,
      "byteOffset": 12
    },
    {
      "type": "VEC3",
      "componentType": 5126,
      "count": 4,
      "max": [
        0.03125,
        0.0625,
        0
      ],
      "min": [
        0,
        -0.03125,
        0
      ],
      "bufferView": 5,
      "byteOffset": 0
    },
    {
      "type": "VEC2",
      "componentType": 5126,
      "count": 4,
      "bufferView": 5,
      "byteOffset": 12
    },
    {
      "type": "VEC3",
      "componentType": 5126,
      "count": 4,
      "bufferView": 5,
      "byteOffset": 20
    },
    {
      "type": "VEC3",
      "componentType": 5126,
      "count": 4,
      "max": [
        0.015625,
        0.046875,
        0
      ],
      "min": [
        -0.015625,
        -0.046875,
        0
      ],
      "bufferView": 6,
      "byteOffset": 0
    },
    {
      "type": "VEC3",
      "componentType": 5126,
      "count": 20,
      "max": [
        0.03125,
        -0.03125,
        0.125
      ],
      "min": [
        -0.03125,
        -0.34375,
        -0.125
      ],
      "bufferView": 7,
      "byteOffset": 0
    },
    {
      "type": "VEC2",
      "componentType": 5126,
      "count": 20,
      "bufferView": 7,
      "byteOffset": 12
    },
    {
      "type": "VEC2",
      "componentType": 5126,
      "count": 20,
      "bufferView": 8,
      "byteOffset": 0
    },
    {
      "type": "VEC3",
      "componentType": 5126,
      "count": 24,
      "max": [
        0.2487500011920929,
        1.9987499713897705,
        0.2487500011920929
      ],
      "min": [
        -0.2487500011920929,
        1.5012500286102295,
        -0.2487500011920929
      ],
      "bufferView": 9,
      "byteOffset": 0
    },
    {
      "type": "VEC2",
      "componentType": 5126,
      "count": 24,
      "bufferView": 9,
      "byteOffset": 12
    },
    {
      "type": "VEC3",
      "componentType": 5126,
      "count": 24,
      "max": [
        0.125,
        1.6875,
        -0.25
      ],
      "min": [
        -0.0625,
        1.5,
        -0.3125
      ],
      "bufferView": 10,
      "byteOffset": 0
    },
    {
      "type": "VEC2",
      "componentType": 5126,
      "count": 24,
      "bufferView": 10,
      "byteOffset": 12
    },
    {
      "type": "VEC3",
      "componentType": 5126,
      "count": 20,
      "max": [
        0.5,
        1.5,
        0.125
      ],
      "min": [
        0.25,
        0.75,
        -0.1875
      ],
      "bufferView": 11,
      "byteOffset": 0
    },
    {
      "type": "VEC2",
      "componentType": 5126,
      "count": 20,
      "bufferView": 11,
      "byteOffset": 12
    },
    {
      "type": "VEC3",
      "componentType": 5126,
      "count": 20,
      "bufferView": 11,
      "byteOffset": 20
    },
    {
      "type": "VEC3",
      "componentType": 5126,
      "count": 20,
      "max": [
        -0.25,
        1.5,
        0.125
      ],
      "min": [
        -0.5,
        0.75,
        -0.1875
      ],
      "bufferView": 12,
      "byteOffset": 0
    },
    {
      "type": "VEC2",
      "componentType": 5126,
      "count": 20,
      "bufferView": 12,
      "byteOffset": 12
    },
    {
      "type": "VEC3",
      "componentType": 5126,
      "count": 20,
      "bufferView": 12,
      "byteOffset": 20
    },
    {
      "type": "VEC3",
      "componentType": 5126,
      "count": 8,
      "max": [
        0.0000625000029685907,
        0.03125,
        0.453125
      ],
      "min": [
        0,
        -0.03125,
        -0.234375
      ],
      "bufferView": 13,
      "byteOffset": 0
    },
    {
      "type": "VEC2",
      "componentType": 5126,
      "count": 8,
      "bufferView": 13,
      "byteOffset": 12
    },
    {
      "type": "VEC3",
      "componentType": 5126,
      "count": 8,
      "bufferView": 13,
      "byteOffset": 20
    },
    {
      "type": "VEC3",
      "componentType": 5126,
      "count": 8,
      "max": [
        0.03125,
        0.0000625000029685907,
        0.453125
      ],
      "min": [
        -0.03125,
        0,
        -0.234375
      ],
      "bufferView": 14,
      "byteOffset": 0
    },
    {
      "type": "VEC2",
      "componentType": 5126,
      "count": 8,
      "bufferView": 14,
      "byteOffset": 12
    },
    {
      "type": "VEC3",
      "componentType": 5126,
      "count": 8,
      "bufferView": 14,
      "byteOffset": 20
    },
    {
      "type": "VEC3",
      "componentType": 5126,
      "count": 8,
      "max": [
        0.0000625000029685907,
        0.15625,
        0.015625
      ],
      "min": [
        0,
        -0.15625,
        -0.234375
      ],
      "bufferView": 15,
      "byteOffset": 0
    },
    {
      "type": "VEC2",
      "componentType": 5126,
      "count": 8,
      "bufferView": 15,
      "byteOffset": 12
    },
    {
      "type": "VEC3",
      "componentType": 5126,
      "count": 8,
      "max": [
        0.15625,
        0.0000625000029685907,
        0.015625
      ],
      "min": [
        -0.15625,
        0,
        -0.234375
      ],
      "bufferView": 16,
      "byteOffset": 0
    },
    {
      "type": "VEC2",
      "componentType": 5126,
      "count": 8,
      "bufferView": 16,
      "byteOffset": 12
    }
  ],
  "bufferViews": [
    {
      "buffer": 0,
      "byteOffset": 0,
      "byteLength": 216,
      "target": 34963
    },
    {
      "buffer": 0,
      "byteOffset": 216,
      "byteLength": 640,
      "byteStride": 32,
      "target": 34962
    },
    {
      "buffer": 0,
      "byteOffset": 856,
      "byteLength": 512,
      "byteStride": 32,
      "target": 34962
    },
    {
      "buffer": 0,
      "byteOffset": 1368,
      "byteLength": 768,
      "byteStride": 32,
      "target": 34962
    },
    {
      "buffer": 0,
      "byteOffset": 2136,
      "byteLength": 480,
      "byteStride": 20,
      "target": 34962
    },
    {
      "buffer": 0,
      "byteOffset": 2616,
      "byteLength": 128,
      "byteStride": 32,
      "target": 34962
    },
    {
      "buffer": 0,
      "byteOffset": 2744,
      "byteLength": 48,
      "byteStride": 12,
      "target": 34962
    },
    {
      "buffer": 0,
      "byteOffset": 2792,
      "byteLength": 400,
      "byteStride": 20,
      "target": 34962
    },
    {
      "buffer": 0,
      "byteOffset": 3192,
      "byteLength": 160,
      "byteStride": 8,
      "target": 34962
    },
    {
      "buffer": 0,
      "byteOffset": 3352,
      "byteLength": 480,
      "byteStride": 20,
      "target": 34962
    },
    {
      "buffer": 0,
      "byteOffset": 3832,
      "byteLength": 480,
      "byteStride": 20,
      "target": 34962
    },
    {
      "buffer": 0,
      "byteOffset": 4312,
      "byteLength": 640,
      "byteStride": 32,
      "target": 34962
    },
    {
      "buffer": 0,
      "byteOffset": 4952,
      "byteLength": 640,
      "byteStride": 32,
      "target": 34962
    },
    {
      "buffer": 0,
      "byteOffset": 5592,
      "byteLength": 256,
      "byteStride": 32,
      "target": 34962
    },
    {
      "buffer": 0,
      "byteOffset": 5848,
      "byteLength": 256,
      "byteStride": 32,
      "target": 34962
    },
    {
      "buffer": 0,
      "byteOffset": 6104,
      "byteLength": 160,
      "byteStride": 20,
      "target": 34962
    },
    {
      "buffer": 0,
      "byteOffset": 6264,
      "byteLength": 160,
      "byteStride": 20,
      "target": 34962
    }
  ],
  "samplers": [
    {
      "magFilter": 9728,
      "minFilter": 9728,
      "wrapS": 33071,
      "wrapT": 33071
    }
  ],
  "textures": [
    {
      "source": 0,
      "sampler": 0
    }
  ],
  "images": [
    {
      "mimeType": "image/png",
      "uri": "baseColor.png"
    }
  ],
  "buffers": [
    {
      "uri": "standing-target-named-nodes.bin",
      "byteLength": 6424
    }
  ],
  "materials": [
    {
      "alphaMode": "MASK",
      "alphaCutoff": 0.05,
      "pbrMetallicRoughness": {
        "metallicFactor": 0,
        "baseColorTexture": {
          "index": 0
        }
      }
    }
  ],
  "meshes": [
    {
      "primitives": [
        {
          "attributes": {
            "POSITION": 5,
            "NORMAL": 6,
            "TEXCOORD_0": 7
          },
          "mode": 4,
          "material": 0,
          "indices": 0
        }
      ]
    },
    {
      "primitives": [
        {
          "attributes": {
            "POSITION": 8,
            "TEXCOORD_0": 9,
            "NORMAL": 10
          },
          "mode": 4,
          "material": 0,
          "indices": 1
        }
      ]
    },
    {
      "primitives": [
        {
          "attributes": {
            "POSITION": 11,
            "TEXCOORD_0": 12,
            "NORMAL": 13
          },
          "mode": 4,
          "material": 0,
          "indices": 2
        }
      ]
    },
    {
      "primitives": [
        {
          "attributes": {
            "POSITION": 14,
            "TEXCOORD_0": 15,
            "NORMAL": 13
          },
          "mode": 4,
          "material": 0,
          "indices": 2
        }
      ]
    },
    {
      "primitives": [
        {
          "attributes": {
            "POSITION": 16,
            "TEXCOORD_0": 17,
            "NORMAL": 18
          },
          "mode": 4,
          "material": 0,
          "indices": 3
        }
      ]
    },
    {
      "primitives": [
        {
          "attributes": {
            "POSITION": 19,
            "NORMAL": 18,
            "TEXCOORD_0": 17
          },
          "mode": 4,
          "material": 0,
          "indices": 3
        }
      ]
    },
    {
      "primitives": [
        {
          "attributes": {
            "POSITION": 16,
            "NORMAL": 18,
            "TEXCOORD_0": 17
          },
          "mode": 4,
          "material": 0,
          "indices": 3
        }
      ]
    },
    {
      "primitives": [
        {
          "attributes": {
            "POSITION": 20,
            "TEXCOORD_0": 21,
            "NORMAL": 6
          },
          "mode": 4,
          "material": 0,
          "indices": 0
        }
      ]
    },
    {
      "primitives": [
        {
          "attributes": {
            "TEXCOORD_0": 22,
            "POSITION": 20,
            "NORMAL": 6
          },
          "mode": 4,
          "material": 0,
          "indices": 0
        }
      ]
    },
    {
      "primitives": [
        {
          "attributes": {
            "POSITION": 23,
            "TEXCOORD_0": 24,
            "NORMAL": 13
          },
          "mode": 4,
          "material": 0,
          "indices": 2
        }
      ]
    },
    {
      "primitives": [
        {
          "attributes": {
            "POSITION": 25,
            "TEXCOORD_0": 26,
            "NORMAL": 13
          },
          "mode": 4,
          "material": 0,
          "indices": 2
        }
      ]
    },
    {
      "primitives": [
        {
          "attributes": {
            "POSITION": 27,
            "TEXCOORD_0": 28,
            "NORMAL": 29
          },
          "mode": 4,
          "material": 0,
          "indices": 0
        }
      ]
    },
    {
      "primitives": [
        {
          "attributes": {
            "POSITION": 30,
            "TEXCOORD_0": 31,
            "NORMAL": 32
          },
          "mode": 4,
          "material": 0,
          "indices": 0
        }
      ]
    },
    {
      "primitives": [
        {
          "attributes": {
            "POSITION": 33,
            "TEXCOORD_0": 34,
            "NORMAL": 35
          },
          "mode": 4,
          "material": 0,
          "indices": 4
        }
      ]
    },
    {
      "primitives": [
        {
          "attributes": {
            "POSITION": 36,
            "TEXCOORD_0": 37,
            "NORMAL": 38
          },
          "mode": 4,
          "material": 0,
          "indices": 4
        }
      ]
    },
    {
      "primitives": [
        {
          "attributes": {
            "POSITION": 39,
            "TEXCOORD_0": 40,
            "NORMAL": 35
          },
          "mode": 4,
          "material": 0,
          "indices": 4
        }
      ]
    },
    {
      "primitives": [
        {
          "attributes": {
            "POSITION": 41,
            "TEXCOORD_0": 42,
            "NORMAL": 38
          },
          "mode": 4,
          "material": 0,
          "indices": 4
        }
      ]
    },
    {
      "primitives": [
        {
          "attributes": {
            "POSITION": 33,
            "NORMAL": 35,
            "TEXCOORD_0": 34
          },
          "mode": 4,
          "material": 0,
          "indices": 4
        }
      ]
    },
    {
      "primitives": [
        {
          "attributes": {
            "POSITION": 39,
            "NORMAL": 35,
            "TEXCOORD_0": 40
          },
          "mode": 4,
          "material": 0,
          "indices": 4
        }
      ]
    },
    {
      "primitives": [
        {
          "attributes": {
            "POSITION": 41,
            "NORMAL": 38,
            "TEXCOORD_0": 42
          },
          "mode": 4,
          "material": 0,
          "indices": 4
        }
      ]
    },
    {
      "primitives": [
        {
          "attributes": {
            "POSITION": 36,
            "NORMAL": 38,
            "TEXCOORD_0": 37
          },
          "mode": 4,
          "material": 0,
          "indices": 4
        }
      ]
    }
  ],
  "nodes": [
    {
      "name": "Body",
      "translation": [
        0.49875,
        0.0019825,
        0.50125
      ],
      "mesh": 0
    },
    {
      "name": "cube",
      "translation": [
        0.5,
        0.4375,
        0.5
      ],
      "mesh": 1
    },
    {
      "name": "cube",
      "translation": [
        0.5,
        0.0625,
        0.5
      ],
      "rotation": [
        0,
        0.3826834323650898,
        0,
        0.9238795325112867
      ],
      "mesh": 2
    },
    {
      "name": "cube",
      "translation": [
        0.5,
        0.0625,
        0.5
      ],
      "rotation": [
        0,
        0.3826834323650898,
        0,
        0.9238795325112867
      ],
      "mesh": 3
    },
    {
      "name": "cube",
      "translation": [
        0.374511875,
        1.790039375,
        0.25
      ],
      "rotation": [
        0,
        0,
        0.3826834323650898,
        0.9238795325112867
      ],
      "mesh": 4
    },
    {
      "name": "cube",
      "translation": [
        0.374511875,
        1.81213625,
        0.25
      ],
      "rotation": [
        0,
        0,
        -0.3826834323650898,
        0.9238795325112867
      ],
      "mesh": 5
    },
    {
      "name": "cube",
      "translation": [
        0.624511875,
        1.790039375,
        0.25
      ],
      "rotation": [
        0,
        0,
        0.3826834323650898,
        0.9238795325112867
      ],
      "mesh": 6
    },
    {
      "name": "cube",
      "translation": [
        0.624511875,
        1.81213625,
        0.25
      ],
      "rotation": [
        0,
        0,
        -0.3826834323650898,
        0.9238795325112867
      ],
      "mesh": 5
    },
    {
      "name": "leftear",
      "translation": [
        0.29516625,
        1.9069825,
        0.5
      ],
      "rotation": [
        0,
        0,
        -0.19509032201612825,
        0.9807852804032304
      ],
      "mesh": 7
    },
    {
      "name": "rightear",
      "translation": [
        0.70483375,
        1.9069825,
        0.5
      ],
      "rotation": [
        0,
        0,
        0.19509032201612825,
        0.9807852804032304
      ],
      "mesh": 8
    },
    {
      "name": "head",
      "translation": [
        0.5,
        0.0007325,
        0.5
      ],
      "mesh": 9
    },
    {
      "name": "head",
      "translation": [
        0.46875,
        0.0632325,
        0.5
      ],
      "mesh": 10
    },
    {
      "name": "RightArm",
      "translation": [
        0.49875,
        0.0019825,
        0.5325
      ],
      "mesh": 11
    },
    {
      "name": "LeftArm",
      "translation": [
        0.50125,
        0.0019825,
        0.5325
      ],
      "mesh": 12
    },
    {
      "name": "cube",
      "translation": [
        0.625,
        1.09375,
        -0.015625
      ],
      "rotation": [
        0.19509032201612825,
        0,
        0,
        0.9807852804032304
      ],
      "mesh": 13
    },
    {
      "name": "cube",
      "translation": [
        0.625,
        1.09375,
        -0.015625
      ],
      "rotation": [
        0.19509032201612825,
        0,
        0,
        0.9807852804032304
      ],
      "mesh": 14
    },
    {
      "name": "cube",
      "translation": [
        0.625,
        1.09375,
        -0.015625
      ],
      "rotation": [
        0.19509032201612825,
        0,
        0,
        0.9807852804032304
      ],
      "mesh": 15
    },
    {
      "name": "cube",
      "translation": [
        0.625,
        1.09375,
        -0.015625
      ],
      "rotation": [
        0.19509032201612825,
        0,
        0,
        0.9807852804032304
      ],
      "mesh": 16
    },
    {
      "name": "cube",
      "translation": [
        0.28125,
        1.8125,
        -0.015625
      ],
      "rotation": [
        0,
        0.19509032201612825,
        0,
        0.9807852804032304
      ],
      "mesh": 17
    },
    {
      "name": "cube",
      "translation": [
        0.28125,
        1.8125,
        -0.015625
      ],
      "rotation": [
        0,
        0.19509032201612825,
        0,
        0.9807852804032304
      ],
      "mesh": 18
    },
    {
      "name": "cube",
      "translation": [
        0.28125,
        1.8125,
        -0.015625
      ],
      "rotation": [
        0,
        0.19509032201612825,
        0,
        0.9807852804032304
      ],
      "mesh": 19
    },
    {
      "name": "cube",
      "translation": [
        0.28125,
        1.8125,
        -0.015625
      ],
      "rotation": [
        0,
        0.19509032201612825,
        0,
        0.9807852804032304
      ],
      "mesh": 20
    }
  ],
  "scenes": [
    {
      "name": "blockbench_export",
      "nodes": [
        0,
        1,
        2,
        3,
        4,
        5,
        6,
        7,
        8,
        9,
        10,
        11,
        12,
        13,
        14,
        15,
        16,
        17,
        18,
        19,
        20,
        21
      ]
    }
  ],
  "scene": 0
}