{
  "asset": {
    "generator": "glTF-Transform v4.1.3",
    "version": "2.0"
  },
  "accessors": [
    {
      "type": "SCALAR",
      "componentType": 5123,
      "count": 36,
      "bufferView": 0,
      "byteOffset": 0
    },
    {
      "type": "VEC3",
      "componentType": 5126,
      "count": 24,
      "max": [
        0.0625,
        0.0625,
        0.0625
      ],
      "min": [
        -0.0625,
        -0.0625,
        -0.0625
      ],
      "bufferView": 1,
      "byteOffset": 0
    },
    {
      "type": "VEC3",
      "componentType": 5126,
      "count": 24,
      "bufferView": 1,
      "byteOffset": 12
    },
    {
      "type": "VEC2",
      "componentType": 5126,
      "count": 24,
      "bufferView": 1,
      "byteOffset": 24
    },
    {
      "type": "VEC2",
      "componentType": 5126,
      "count": 24,
      "bufferView": 2,
      "byteOffset": 0
    },
    {
      "type": "VEC3",
      "componentType": 5126,
      "count": 24,
      "max": [
        -0.15847063064575195,
        0.0625,
        0.28347063064575195
      ],
      "min": [
        -0.28347063064575195,
        -0.0625,
        0.15847063064575195
      ],
      "bufferView": 3,
      "byteOffset": 0
    },
    {
      "type": "VEC2",
      "componentType": 5126,
      "count": 24,
      "bufferView": 3,
      "byteOffset": 12
    },
    {
      "type": "VEC3",
      "componentType": 5126,
      "count": 24,
      "max": [
        0.28347063064575195,
        0.0625,
        0.28347063064575195
      ],
      "min": [
        0.15847063064575195,
        -0.0625,
        0.15847063064575195
      ],
      "bufferView": 4,
      "byteOffset": 0
    },
    {
      "type": "VEC2",
      "componentType": 5126,
      "count": 24,
      "bufferView": 4,
      "byteOffset": 12
    },
    {
      "type": "VEC3",
      "componentType": 5126,
      "count": 24,
      "max": [
        0.625,
        0.125,
        0.1875
      ],
      "min": [
        0,
        0,
        0
      ],
      "bufferView": 5,
      "byteOffset": 0
    },
    {
      "type": "VEC2",
      "componentType": 5126,
      "count": 24,
      "bufferView": 5,
      "byteOffset": 12
    },
    {
      "type": "VEC3",
      "componentType": 5126,
      "count": 24,
      "max": [
        0.34976187348365784,
        0.0625,
        -0.09217937290668488
      ],
      "min": [
        0.22476187348365784,
        -0.0625,
        -0.21717937290668488
      ],
      "bufferView": 6,
      "byteOffset": 0
    },
    {
      "type": "VEC3",
      "componentType": 5126,
      "count": 24,
      "max": [
        -0.09217937290668488,
        0.0625,
        0.34976187348365784
      ],
      "min": [
        -0.21717937290668488,
        -0.0625,
        0.22476187348365784
      ],
      "bufferView": 7,
      "byteOffset": 0
    },
    {
      "type": "VEC2",
      "componentType": 5126,
      "count": 24,
      "bufferView": 7,
      "byteOffset": 12
    },
    {
      "type": "VEC3",
      "componentType": 5126,
      "count": 24,
      "max": [
        -0.22476187348365784,
        0.0625,
        0.21717937290668488
      ],
      "min": [
        -0.34976187348365784,
        -0.0625,
        0.09217937290668488
      ],
      "bufferView": 8,
      "byteOffset": 0
    },
    {
      "type": "VEC3",
      "componentType": 5126,
      "count": 24,
      "max": [
        0.21717937290668488,
        0.0625,
        -0.22476187348365784
      ],
      "min": [
        0.09217937290668488,
        -0.0625,
        -0.34976187348365784
      ],
      "bufferView": 9,
      "byteOffset": 0
    },
    {
      "type": "VEC2",
      "componentType": 5126,
      "count": 24,
      "bufferView": 9,
      "byteOffset": 12
    },
    {
      "type": "VEC3",
      "componentType": 5126,
      "count": 24,
      "max": [
        0.09375,
        0.0625,
        0.3125
      ],
      "min": [
        -0.09375,
        -0.0625,
        -0.3125
      ],
      "bufferView": 10,
      "byteOffset": 0
    },
    {
      "type": "VEC2",
      "componentType": 5126,
      "count": 24,
      "bufferView": 10,
      "byteOffset": 12
    }
  ],
  "bufferViews": [
    {
      "buffer": 0,
      "byteOffset": 0,
      "byteLength": 72,
      "target": 34963
    },
    {
      "buffer": 0,
      "byteOffset": 72,
      "byteLength": 768,
      "byteStride": 32,
      "target": 34962
    },
    {
      "buffer": 0,
      "byteOffset": 840,
      "byteLength": 192,
      "byteStride": 8,
      "target": 34962
    },
    {
      "buffer": 0,
      "byteOffset": 1032,
      "byteLength": 480,
      "byteStride": 20,
      "target": 34962
    },
    {
      "buffer": 0,
      "byteOffset": 1512,
      "byteLength": 480,
      "byteStride": 20,
      "target": 34962
    },
    {
      "buffer": 0,
      "byteOffset": 1992,
      "byteLength": 480,
      "byteStride": 20,
      "target": 34962
    },
    {
      "buffer": 0,
      "byteOffset": 2472,
      "byteLength": 288,
      "byteStride": 12,
      "target": 34962
    },
    {
      "buffer": 0,
      "byteOffset": 2760,
      "byteLength": 480,
      "byteStride": 20,
      "target": 34962
    },
    {
      "buffer": 0,
      "byteOffset": 3240,
      "byteLength": 288,
      "byteStride": 12,
      "target": 34962
    },
    {
      "buffer": 0,
      "byteOffset": 3528,
      "byteLength": 480,
      "byteStride": 20,
      "target": 34962
    },
    {
      "buffer": 0,
      "byteOffset": 4008,
      "byteLength": 480,
      "byteStride": 20,
      "target": 34962
    }
  ],
  "samplers": [
    {
      "magFilter": 9728,
      "minFilter": 9728,
      "wrapS": 33071,
      "wrapT": 33071
    }
  ],
  "textures": [
    {
      "source": 0,
      "sampler": 0
    }
  ],
  "images": [
    {
      "mimeType": "image/png",
      "uri": "baseColor.png"
    }
  ],
  "buffers": [
    {
      "uri": "bones-named-nodes.bin",
      "byteLength": 4488
    }
  ],
  "materials": [
    {
      "alphaMode": "MASK",
      "alphaCutoff": 0.05,
      "pbrMetallicRoughness": {
        "metallicFactor": 0,
        "baseColorTexture": {
          "index": 0
        }
      }
    }
  ],
  "meshes": [
    {
      "primitives": [
        {
          "attributes": {
            "POSITION": 1,
            "NORMAL": 2,
            "TEXCOORD_0": 3
          },
          "mode": 4,
          "material": 0,
          "indices": 0
        }
      ]
    },
    {
      "primitives": [
        {
          "attributes": {
            "TEXCOORD_0": 4,
            "POSITION": 1,
            "NORMAL": 2
          },
          "mode": 4,
          "material": 0,
          "indices": 0
        }
      ]
    },
    {
      "primitives": [
        {
          "attributes": {
            "POSITION": 5,
            "TEXCOORD_0": 6,
            "NORMAL": 2
          },
          "mode": 4,
          "material": 0,
          "indices": 0
        }
      ]
    },
    {
      "primitives": [
        {
          "attributes": {
            "POSITION": 7,
            "TEXCOORD_0": 8,
            "NORMAL": 2
          },
          "mode": 4,
          "material": 0,
          "indices": 0
        }
      ]
    },
    {
      "primitives": [
        {
          "attributes": {
            "POSITION": 9,
            "TEXCOORD_0": 10,
            "NORMAL": 2
          },
          "mode": 4,
          "material": 0,
          "indices": 0
        }
      ]
    },
    {
      "primitives": [
        {
          "attributes": {
            "POSITION": 11,
            "NORMAL": 2,
            "TEXCOORD_0": 3
          },
          "mode": 4,
          "material": 0,
          "indices": 0
        }
      ]
    },
    {
      "primitives": [
        {
          "attributes": {
            "POSITION": 12,
            "TEXCOORD_0": 13,
            "NORMAL": 2
          },
          "mode": 4,
          "material": 0,
          "indices": 0
        }
      ]
    },
    {
      "primitives": [
        {
          "attributes": {
            "POSITION": 14,
            "NORMAL": 2,
            "TEXCOORD_0": 6
          },
          "mode": 4,
          "material": 0,
          "indices": 0
        }
      ]
    },
    {
      "primitives": [
        {
          "attributes": {
            "POSITION": 15,
            "TEXCOORD_0": 16,
            "NORMAL": 2
          },
          "mode": 4,
          "material": 0,
          "indices": 0
        }
      ]
    },
    {
      "primitives": [
        {
          "attributes": {
            "POSITION": 17,
            "TEXCOORD_0": 18,
            "NORMAL": 2
          },
          "mode": 4,
          "material": 0,
          "indices": 0
        }
      ]
    }
  ],
  "nodes": [
    {
      "name": "cube",
      "translation": [
        0.8125,
        0.0625,
        0.5625
      ],
      "rotation": [
        0,
        -0.3826834323650898,
        0,
        0.9238795325112867
      ],
      "mesh": 0
    },
    {
      "name": "cube",
      "translation": [
        0.1875,
        0.0625,
        0.5625
      ],
      "rotation": [
        0,
        0.3826834323650898,
        0,
        0.9238795325112867
      ],
      "mesh": 1
    },
    {
      "name": "cube",
      "translation": [
        0.5,
        0.0625,
        0.375
      ],
      "rotation": [
        0,
        -0.3826834323650898,
        0,
        0.9238795325112867
      ],
      "mesh": 2
    },
    {
      "name": "cube",
      "translation": [
        0.5,
        0.0625,
        0.375
      ],
      "rotation": [
        0,
        0.3826834323650898,
        0,
        0.9238795325112867
      ],
      "mesh": 3
    },
    {
      "name": "cube",
      "translation": [
        0.1875,
        0,
        0.375
      ],
      "mesh": 4
    },
    {
      "name": "cube",
      "translation": [
        0.5,
        0.1875,
        0.46875
      ],
      "rotation": [
        0,
        0.19509032201612825,
        0,
        0.9807852804032304
      ],
      "mesh": 5
    },
    {
      "name": "cube",
      "translation": [
        0.5,
        0.1875,
        0.46875
      ],
      "rotation": [
        0,
        0.19509032201612825,
        0,
        0.9807852804032304
      ],
      "mesh": 6
    },
    {
      "name": "cube",
      "translation": [
        0.5,
        0.1875,
        0.46875
      ],
      "rotation": [
        0,
        0.19509032201612825,
        0,
        0.9807852804032304
      ],
      "mesh": 7
    },
    {
      "name": "cube",
      "translation": [
        0.5,
        0.1875,
        0.46875
      ],
      "rotation": [
        0,
        0.19509032201612825,
        0,
        0.9807852804032304
      ],
      "mesh": 8
    },
    {
      "name": "cube",
      "translation": [
        0.5,
        0.1875,
        0.46875
      ],
      "rotation": [
        0,
        -0.19509032201612825,
        0,
        0.9807852804032304
      ],
      "mesh": 9
    }
  ],
  "scenes": [
    {
      "name": "blockbench_export",
      "nodes": [
        0,
        1,
        2,
        3,
        4,
        5,
        6,
        7,
        8,
        9
      ]
    }
  ],
  "scene": 0
}