{
  "asset": {
    "generator": "glTF-Transform v4.1.2",
    "version": "2.0"
  },
  "accessors": [
    {
      "type": "SCALAR",
      "componentType": 5126,
      "count": 24,
      "max": [
        4.958333492279053
      ],
      "min": [
        0
      ],
      "bufferView": 0,
      "byteOffset": 0
    },
    {
      "type": "VEC3",
      "componentType": 5126,
      "count": 24,
      "bufferView": 0,
      "byteOffset": 96
    },
    {
      "type": "VEC3",
      "componentType": 5126,
      "count": 1,
      "bufferView": 0,
      "byteOffset": 384
    },
    {
      "type": "SCALAR",
      "componentType": 5126,
      "count": 6,
      "max": [
        5.291666507720947
      ],
      "min": [
        0
      ],
      "bufferView": 0,
      "byteOffset": 396
    },
    {
      "type": "VEC4",
      "componentType": 5126,
      "count": 6,
      "bufferView": 0,
      "byteOffset": 420
    },
    {
      "type": "VEC3",
      "componentType": 5126,
      "count": 1,
      "bufferView": 0,
      "byteOffset": 516
    },
    {
      "type": "VEC4",
      "componentType": 5126,
      "count": 1,
      "bufferView": 0,
      "byteOffset": 528
    },
    {
      "type": "VEC3",
      "componentType": 5126,
      "count": 1,
      "bufferView": 0,
      "byteOffset": 544
    },
    {
      "type": "VEC3",
      "componentType": 5126,
      "count": 1,
      "bufferView": 0,
      "byteOffset": 556
    },
    {
      "type": "SCALAR",
      "componentType": 5126,
      "count": 3,
      "max": [
        0.3333333432674408
      ],
      "min": [
        0
      ],
      "bufferView": 0,
      "byteOffset": 568
    },
    {
      "type": "VEC4",
      "componentType": 5126,
      "count": 3,
      "bufferView": 0,
      "byteOffset": 580
    },
    {
      "type": "SCALAR",
      "componentType": 5126,
      "count": 7,
      "max": [
        0.3333333432674408
      ],
      "min": [
        0
      ],
      "bufferView": 0,
      "byteOffset": 628
    },
    {
      "type": "VEC3",
      "componentType": 5126,
      "count": 7,
      "bufferView": 0,
      "byteOffset": 656
    },
    {
      "type": "SCALAR",
      "componentType": 5126,
      "count": 23,
      "max": [
        5.291666507720947
      ],
      "min": [
        0
      ],
      "bufferView": 0,
      "byteOffset": 740
    },
    {
      "type": "VEC4",
      "componentType": 5126,
      "count": 23,
      "bufferView": 0,
      "byteOffset": 832
    },
    {
      "type": "SCALAR",
      "componentType": 5126,
      "count": 2,
      "max": [
        0.875
      ],
      "min": [
        0
      ],
      "bufferView": 0,
      "byteOffset": 1200
    },
    {
      "type": "VEC4",
      "componentType": 5126,
      "count": 2,
      "bufferView": 0,
      "byteOffset": 1208
    },
    {
      "type": "SCALAR",
      "componentType": 5126,
      "count": 13,
      "max": [
        0.875
      ],
      "min": [
        0
      ],
      "bufferView": 0,
      "byteOffset": 1240
    },
    {
      "type": "VEC3",
      "componentType": 5126,
      "count": 13,
      "bufferView": 0,
      "byteOffset": 1292
    },
    {
      "type": "VEC3",
      "componentType": 5126,
      "count": 2,
      "bufferView": 0,
      "byteOffset": 1448
    },
    {
      "type": "SCALAR",
      "componentType": 5126,
      "count": 12,
      "max": [
        0.875
      ],
      "min": [
        0
      ],
      "bufferView": 0,
      "byteOffset": 1472
    },
    {
      "type": "VEC3",
      "componentType": 5126,
      "count": 12,
      "bufferView": 0,
      "byteOffset": 1520
    },
    {
      "type": "VEC3",
      "componentType": 5126,
      "count": 12,
      "bufferView": 0,
      "byteOffset": 1664
    },
    {
      "type": "SCALAR",
      "componentType": 5126,
      "count": 1,
      "max": [
        0
      ],
      "min": [
        0
      ]
    },
    {
      "type": "SCALAR",
      "componentType": 5123,
      "count": 684,
      "bufferView": 1,
      "byteOffset": 0
    },
    {
      "type": "SCALAR",
      "componentType": 5123,
      "count": 324,
      "bufferView": 1,
      "byteOffset": 1368
    },
    {
      "type": "SCALAR",
      "componentType": 5123,
      "count": 72,
      "bufferView": 1,
      "byteOffset": 2016
    },
    {
      "type": "SCALAR",
      "componentType": 5123,
      "count": 36,
      "bufferView": 1,
      "byteOffset": 2160
    },
    {
      "type": "VEC3",
      "componentType": 5126,
      "count": 456,
      "max": [
        1.203125,
        1.3570194244384766,
        1.7484296560287476
      ],
      "min": [
        -1.328125,
        0.011508500203490257,
        0.37199392914772034
      ],
      "bufferView": 2,
      "byteOffset": 0
    },
    {
      "type": "VEC3",
      "componentType": 5126,
      "count": 456,
      "bufferView": 2,
      "byteOffset": 12
    },
    {
      "type": "VEC2",
      "componentType": 5126,
      "count": 456,
      "bufferView": 2,
      "byteOffset": 24
    },
    {
      "type": "VEC3",
      "componentType": 5126,
      "count": 216,
      "max": [
        1.34375,
        1.8125,
        1.03125
      ],
      "min": [
        -1.34375,
        -0.78125,
        -2.96875
      ],
      "bufferView": 3,
      "byteOffset": 0
    },
    {
      "type": "VEC2",
      "componentType": 5126,
      "count": 216,
      "bufferView": 3,
      "byteOffset": 12
    },
    {
      "type": "VEC3",
      "componentType": 5126,
      "count": 216,
      "bufferView": 3,
      "byteOffset": 20
    },
    {
      "type": "VEC3",
      "componentType": 5126,
      "count": 48,
      "max": [
        2.40625,
        -0.21875,
        0.28125
      ],
      "min": [
        -0.03125,
        -0.71875,
        -0.21875
      ],
      "bufferView": 4,
      "byteOffset": 0
    },
    {
      "type": "VEC2",
      "componentType": 5126,
      "count": 48,
      "bufferView": 4,
      "byteOffset": 12
    },
    {
      "type": "VEC3",
      "componentType": 5126,
      "count": 48,
      "bufferView": 4,
      "byteOffset": 20
    },
    {
      "type": "VEC3",
      "componentType": 5126,
      "count": 48,
      "max": [
        1.09375,
        0.5625,
        2.5625
      ],
      "min": [
        -1.09375,
        -0.28125,
        -1.03125
      ],
      "bufferView": 5,
      "byteOffset": 0
    },
    {
      "type": "VEC2",
      "componentType": 5126,
      "count": 48,
      "bufferView": 5,
      "byteOffset": 12
    },
    {
      "type": "VEC3",
      "componentType": 5126,
      "count": 24,
      "max": [
        1.4375,
        1.5,
        1.4375
      ],
      "min": [
        -0.0625,
        0,
        -0.0625
      ],
      "bufferView": 6,
      "byteOffset": 0
    },
    {
      "type": "VEC2",
      "componentType": 5126,
      "count": 24,
      "bufferView": 6,
      "byteOffset": 12
    },
    {
      "type": "VEC3",
      "componentType": 5126,
      "count": 24,
      "bufferView": 6,
      "byteOffset": 20
    },
    {
      "type": "VEC3",
      "componentType": 5126,
      "count": 456,
      "max": [
        1.203125,
        1.3570194244384766,
        1.7484296560287476
      ],
      "min": [
        -1.328125,
        0.011508500203490257,
        0.37199392914772034
      ],
      "bufferView": 7,
      "byteOffset": 0
    },
    {
      "type": "VEC2",
      "componentType": 5126,
      "count": 456,
      "bufferView": 7,
      "byteOffset": 12
    }
  ],
  "bufferViews": [
    {
      "buffer": 0,
      "byteOffset": 0,
      "byteLength": 1808
    },
    {
      "buffer": 0,
      "byteOffset": 1808,
      "byteLength": 2232,
      "target": 34963
    },
    {
      "buffer": 0,
      "byteOffset": 4040,
      "byteLength": 14592,
      "byteStride": 32,
      "target": 34962
    },
    {
      "buffer": 0,
      "byteOffset": 18632,
      "byteLength": 6912,
      "byteStride": 32,
      "target": 34962
    },
    {
      "buffer": 0,
      "byteOffset": 25544,
      "byteLength": 1536,
      "byteStride": 32,
      "target": 34962
    },
    {
      "buffer": 0,
      "byteOffset": 27080,
      "byteLength": 960,
      "byteStride": 20,
      "target": 34962
    },
    {
      "buffer": 0,
      "byteOffset": 28040,
      "byteLength": 768,
      "byteStride": 32,
      "target": 34962
    },
    {
      "buffer": 0,
      "byteOffset": 28808,
      "byteLength": 9120,
      "byteStride": 20,
      "target": 34962
    }
  ],
  "samplers": [
    {
      "magFilter": 9728,
      "minFilter": 9728,
      "wrapS": 33071,
      "wrapT": 33071
    }
  ],
  "textures": [
    {
      "source": 0,
      "sampler": 0
    }
  ],
  "images": [
    {
      "mimeType": "image/png",
      "uri": "baseColor.png"
    }
  ],
  "buffers": [
    {
      "uri": "payload.bin",
      "byteLength": 37928
    }
  ],
  "materials": [
    {
      "alphaMode": "MASK",
      "alphaCutoff": 0.05,
      "doubleSided": true,
      "pbrMetallicRoughness": {
        "metallicFactor": 0,
        "baseColorTexture": {
          "index": 0
        }
      }
    }
  ],
  "meshes": [
    {
      "primitives": [
        {
          "attributes": {
            "POSITION": 28,
            "NORMAL": 29,
            "TEXCOORD_0": 30
          },
          "mode": 4,
          "material": 0,
          "indices": 24
        }
      ]
    },
    {
      "primitives": [
        {
          "attributes": {
            "POSITION": 31,
            "TEXCOORD_0": 32,
            "NORMAL": 33
          },
          "mode": 4,
          "material": 0,
          "indices": 25
        }
      ]
    },
    {
      "primitives": [
        {
          "attributes": {
            "POSITION": 34,
            "TEXCOORD_0": 35,
            "NORMAL": 36
          },
          "mode": 4,
          "material": 0,
          "indices": 26
        }
      ]
    },
    {
      "primitives": [
        {
          "attributes": {
            "POSITION": 37,
            "TEXCOORD_0": 38,
            "NORMAL": 36
          },
          "mode": 4,
          "material": 0,
          "indices": 26
        }
      ]
    },
    {
      "primitives": [
        {
          "attributes": {
            "POSITION": 39,
            "TEXCOORD_0": 40,
            "NORMAL": 41
          },
          "mode": 4,
          "material": 0,
          "indices": 27
        }
      ]
    },
    {
      "primitives": [
        {
          "attributes": {
            "POSITION": 39,
            "NORMAL": 41,
            "TEXCOORD_0": 40
          },
          "mode": 4,
          "material": 0,
          "indices": 27
        }
      ]
    },
    {
      "primitives": [
        {
          "attributes": {
            "POSITION": 42,
            "TEXCOORD_0": 43,
            "NORMAL": 29
          },
          "mode": 4,
          "material": 0,
          "indices": 24
        }
      ]
    }
  ],
  "nodes": [
    {
      "name": "Right",
      "translation": [
        0.0625,
        -0.6875,
        -1.073437500000001
      ],
      "mesh": 6
    },
    {
      "name": "Tyre2",
      "translation": [
        0,
        0.65625,
        1.4765625
      ],
      "children": [
        0
      ]
    },
    {
      "name": "Right",
      "translation": [
        0.0625,
        -0.6848464806862042,
        -1.0576512270506715
      ],
      "mesh": 0
    },
    {
      "name": "Tyre",
      "translation": [
        0,
        0.6848464806862042,
        -3.5673487729493294
      ],
      "children": [
        2
      ]
    },
    {
      "name": "Chassis_Door",
      "translation": [
        1.125,
        0,
        0.9375
      ],
      "mesh": 1
    },
    {
      "name": "cube",
      "translation": [
        1.9375,
        0,
        0
      ],
      "mesh": 2
    },
    {
      "name": "Lights",
      "translation": [
        -2,
        0.8125,
        -1.8125
      ],
      "children": [
        5
      ]
    },
    {
      "name": "Chassis_Rear",
      "translation": [
        0,
        -0.07552083333333326,
        -0.981770833333333
      ],
      "mesh": 3
    },
    {
      "name": "TNT_2",
      "translation": [
        -0.5,
        1.5625,
        -0.6875
      ],
      "rotation": [
        0,
        0.06540312923014306,
        0,
        0.9978589232386035
      ],
      "mesh": 4
    },
    {
      "name": "TNT_2",
      "translation": [
        0,
        -1.0755208333333333,
        -0.981770833333333
      ],
      "children": [
        8
      ]
    },
    {
      "name": "TNT-3",
      "translation": [
        -0.5,
        1.5625,
        0.8125
      ],
      "rotation": [
        0,
        -0.1521233861899167,
        0,
        0.9883615104677607
      ],
      "mesh": 5
    },
    {
      "name": "TNT_3",
      "translation": [
        0,
        -1.0755208333333333,
        -0.981770833333333
      ],
      "children": [
        10
      ]
    },
    {
      "name": "TNT_1",
      "translation": [
        -0.25,
        1.5,
        -0.375
      ],
      "rotation": [
        0,
        0.1521233861899167,
        0,
        0.9883615104677607
      ],
      "mesh": 5
    },
    {
      "name": "TNT_1",
      "translation": [
        -0.5,
        0.48697916666666674,
        -0.16927083333333304
      ],
      "children": [
        12
      ]
    },
    {
      "name": "Chassis_Rear",
      "translation": [
        1.125,
        -0.04947916666666674,
        3.981770833333333
      ],
      "children": [
        7,
        9,
        11,
        13
      ]
    },
    {
      "name": "Chassis_Front",
      "translation": [
        -1.125,
        1.125,
        -3
      ],
      "children": [
        4,
        6,
        14
      ]
    },
    {
      "name": "Chassis",
      "translation": [
        0,
        0,
        1.375
      ],
      "children": [
        1,
        3,
        15
      ]
    }
  ],
  "animations": [
    {
      "name": "walk",
      "samplers": [
        {
          "input": 13,
          "output": 14,
          "interpolation": "LINEAR"
        },
        {
          "input": 0,
          "output": 1,
          "interpolation": "LINEAR"
        },
        {
          "input": 23,
          "output": 2,
          "interpolation": "LINEAR"
        },
        {
          "input": 3,
          "output": 4,
          "interpolation": "LINEAR"
        },
        {
          "input": 23,
          "output": 5,
          "interpolation": "LINEAR"
        },
        {
          "input": 23,
          "output": 2,
          "interpolation": "LINEAR"
        },
        {
          "input": 23,
          "output": 6,
          "interpolation": "LINEAR"
        },
        {
          "input": 23,
          "output": 7,
          "interpolation": "LINEAR"
        },
        {
          "input": 23,
          "output": 2,
          "interpolation": "LINEAR"
        },
        {
          "input": 3,
          "output": 4,
          "interpolation": "LINEAR"
        },
        {
          "input": 23,
          "output": 8,
          "interpolation": "LINEAR"
        },
        {
          "input": 23,
          "output": 2,
          "interpolation": "LINEAR"
        },
        {
          "input": 15,
          "output": 16,
          "interpolation": "LINEAR"
        },
        {
          "input": 17,
          "output": 18,
          "interpolation": "LINEAR"
        },
        {
          "input": 15,
          "output": 19,
          "interpolation": "LINEAR"
        },
        {
          "input": 15,
          "output": 16,
          "interpolation": "LINEAR"
        },
        {
          "input": 20,
          "output": 21,
          "interpolation": "LINEAR"
        },
        {
          "input": 15,
          "output": 19,
          "interpolation": "LINEAR"
        },
        {
          "input": 15,
          "output": 16,
          "interpolation": "LINEAR"
        },
        {
          "input": 20,
          "output": 22,
          "interpolation": "LINEAR"
        }
      ],
      "channels": [
        {
          "sampler": 0,
          "target": {
            "node": 15,
            "path": "rotation"
          }
        },
        {
          "sampler": 1,
          "target": {
            "node": 15,
            "path": "translation"
          }
        },
        {
          "sampler": 2,
          "target": {
            "node": 15,
            "path": "scale"
          }
        },
        {
          "sampler": 3,
          "target": {
            "node": 3,
            "path": "rotation"
          }
        },
        {
          "sampler": 4,
          "target": {
            "node": 3,
            "path": "translation"
          }
        },
        {
          "sampler": 5,
          "target": {
            "node": 3,
            "path": "scale"
          }
        },
        {
          "sampler": 6,
          "target": {
            "node": 14,
            "path": "rotation"
          }
        },
        {
          "sampler": 7,
          "target": {
            "node": 14,
            "path": "translation"
          }
        },
        {
          "sampler": 8,
          "target": {
            "node": 14,
            "path": "scale"
          }
        },
        {
          "sampler": 9,
          "target": {
            "node": 1,
            "path": "rotation"
          }
        },
        {
          "sampler": 10,
          "target": {
            "node": 1,
            "path": "translation"
          }
        },
        {
          "sampler": 11,
          "target": {
            "node": 1,
            "path": "scale"
          }
        },
        {
          "sampler": 12,
          "target": {
            "node": 13,
            "path": "rotation"
          }
        },
        {
          "sampler": 13,
          "target": {
            "node": 13,
            "path": "translation"
          }
        },
        {
          "sampler": 14,
          "target": {
            "node": 13,
            "path": "scale"
          }
        },
        {
          "sampler": 15,
          "target": {
            "node": 11,
            "path": "rotation"
          }
        },
        {
          "sampler": 16,
          "target": {
            "node": 11,
            "path": "translation"
          }
        },
        {
          "sampler": 17,
          "target": {
            "node": 11,
            "path": "scale"
          }
        },
        {
          "sampler": 18,
          "target": {
            "node": 9,
            "path": "rotation"
          }
        },
        {
          "sampler": 19,
          "target": {
            "node": 9,
            "path": "translation"
          }
        }
      ]
    },
    {
      "name": "idle",
      "samplers": [
        {
          "input": 9,
          "output": 10,
          "interpolation": "LINEAR"
        },
        {
          "input": 11,
          "output": 12,
          "interpolation": "LINEAR"
        }
      ],
      "channels": [
        {
          "sampler": 0,
          "target": {
            "node": 15,
            "path": "rotation"
          }
        },
        {
          "sampler": 1,
          "target": {
            "node": 15,
            "path": "translation"
          }
        }
      ]
    }
  ],
  "scenes": [
    {
      "name": "blockbench_export",
      "nodes": [
        16
      ]
    }
  ],
  "scene": 0
}