{
  "asset": {
    "generator": "glTF-Transform v4.1.3",
    "version": "2.0"
  },
  "accessors": [
    {
      "type": "SCALAR",
      "componentType": 5123,
      "count": 12,
      "bufferView": 0,
      "byteOffset": 0
    },
    {
      "type": "SCALAR",
      "componentType": 5123,
      "count": 6,
      "bufferView": 0,
      "byteOffset": 24
    },
    {
      "type": "VEC3",
      "componentType": 5126,
      "count": 8,
      "max": [
        0.10787499696016312,
        0.5625,
        -0.390625
      ],
      "min": [
        0.10781250149011612,
        0,
        -1.078125
      ],
      "bufferView": 1,
      "byteOffset": 0
    },
    {
      "type": "VEC3",
      "componentType": 5126,
      "count": 8,
      "bufferView": 1,
      "byteOffset": 12
    },
    {
      "type": "VEC2",
      "componentType": 5126,
      "count": 8,
      "bufferView": 1,
      "byteOffset": 24
    },
    {
      "type": "VEC3",
      "componentType": 5126,
      "count": 4,
      "max": [
        0.34375,
        0.46875,
        0.0000625000029685907
      ],
      "min": [
        -0.15625,
        -0.21875,
        0.0000625000029685907
      ],
      "bufferView": 2,
      "byteOffset": 0
    },
    {
      "type": "VEC2",
      "componentType": 5126,
      "count": 4,
      "bufferView": 2,
      "byteOffset": 12
    },
    {
      "type": "VEC3",
      "componentType": 5126,
      "count": 4,
      "bufferView": 2,
      "byteOffset": 20
    },
    {
      "type": "VEC3",
      "componentType": 5126,
      "count": 4,
      "max": [
        -0.28125,
        0.59375,
        0
      ],
      "min": [
        -0.71875,
        -0.21875,
        0
      ],
      "bufferView": 3,
      "byteOffset": 0
    },
    {
      "type": "VEC2",
      "componentType": 5126,
      "count": 4,
      "bufferView": 3,
      "byteOffset": 12
    },
    {
      "type": "VEC3",
      "componentType": 5126,
      "count": 4,
      "bufferView": 3,
      "byteOffset": 20
    },
    {
      "type": "VEC3",
      "componentType": 5126,
      "count": 8,
      "max": [
        0.0938125029206276,
        0.65625,
        0.546875
      ],
      "min": [
        0.09375,
        -0.21875,
        -0.453125
      ],
      "bufferView": 4,
      "byteOffset": 0
    },
    {
      "type": "VEC2",
      "componentType": 5126,
      "count": 8,
      "bufferView": 4,
      "byteOffset": 12
    },
    {
      "type": "VEC3",
      "componentType": 5126,
      "count": 8,
      "max": [
        0.28125,
        0.40625,
        0.281312495470047
      ],
      "min": [
        -0.21875,
        -0.21875,
        0.28125
      ],
      "bufferView": 5,
      "byteOffset": 0
    },
    {
      "type": "VEC2",
      "componentType": 5126,
      "count": 8,
      "bufferView": 5,
      "byteOffset": 12
    },
    {
      "type": "VEC3",
      "componentType": 5126,
      "count": 8,
      "bufferView": 5,
      "byteOffset": 20
    },
    {
      "type": "VEC3",
      "componentType": 5126,
      "count": 4,
      "max": [
        0.1875,
        0.21875,
        0.046937499195337296
      ],
      "min": [
        -0.3125,
        -0.21875,
        0.046937499195337296
      ],
      "bufferView": 6,
      "byteOffset": 0
    },
    {
      "type": "VEC2",
      "componentType": 5126,
      "count": 4,
      "bufferView": 6,
      "byteOffset": 12
    },
    {
      "type": "VEC3",
      "componentType": 5126,
      "count": 8,
      "max": [
        0.140687495470047,
        0.15625,
        0.46875
      ],
      "min": [
        0.140625,
        -0.15625,
        -0.03125
      ],
      "bufferView": 7,
      "byteOffset": 0
    },
    {
      "type": "VEC2",
      "componentType": 5126,
      "count": 8,
      "bufferView": 7,
      "byteOffset": 12
    },
    {
      "type": "VEC3",
      "componentType": 5126,
      "count": 8,
      "max": [
        0.2016250044107437,
        0.5625,
        0.390625
      ],
      "min": [
        0.20156249403953552,
        0,
        -0.109375
      ],
      "bufferView": 8,
      "byteOffset": 0
    },
    {
      "type": "VEC2",
      "componentType": 5126,
      "count": 8,
      "bufferView": 8,
      "byteOffset": 12
    },
    {
      "type": "VEC3",
      "componentType": 5126,
      "count": 8,
      "max": [
        0.53125,
        0.15625,
        -0.390562504529953
      ],
      "min": [
        0.03125,
        -0.21875,
        -0.390625
      ],
      "bufferView": 9,
      "byteOffset": 0
    },
    {
      "type": "VEC2",
      "componentType": 5126,
      "count": 8,
      "bufferView": 9,
      "byteOffset": 12
    },
    {
      "type": "VEC3",
      "componentType": 5126,
      "count": 8,
      "max": [
        0.375,
        0.65625,
        -0.265562504529953
      ],
      "min": [
        -0.625,
        -0.21875,
        -0.265625
      ],
      "bufferView": 10,
      "byteOffset": 0
    },
    {
      "type": "VEC2",
      "componentType": 5126,
      "count": 8,
      "bufferView": 10,
      "byteOffset": 12
    }
  ],
  "bufferViews": [
    {
      "buffer": 0,
      "byteOffset": 0,
      "byteLength": 36,
      "target": 34963
    },
    {
      "buffer": 0,
      "byteOffset": 36,
      "byteLength": 256,
      "byteStride": 32,
      "target": 34962
    },
    {
      "buffer": 0,
      "byteOffset": 292,
      "byteLength": 128,
      "byteStride": 32,
      "target": 34962
    },
    {
      "buffer": 0,
      "byteOffset": 420,
      "byteLength": 128,
      "byteStride": 32,
      "target": 34962
    },
    {
      "buffer": 0,
      "byteOffset": 548,
      "byteLength": 160,
      "byteStride": 20,
      "target": 34962
    },
    {
      "buffer": 0,
      "byteOffset": 708,
      "byteLength": 256,
      "byteStride": 32,
      "target": 34962
    },
    {
      "buffer": 0,
      "byteOffset": 964,
      "byteLength": 80,
      "byteStride": 20,
      "target": 34962
    },
    {
      "buffer": 0,
      "byteOffset": 1044,
      "byteLength": 160,
      "byteStride": 20,
      "target": 34962
    },
    {
      "buffer": 0,
      "byteOffset": 1204,
      "byteLength": 160,
      "byteStride": 20,
      "target": 34962
    },
    {
      "buffer": 0,
      "byteOffset": 1364,
      "byteLength": 160,
      "byteStride": 20,
      "target": 34962
    },
    {
      "buffer": 0,
      "byteOffset": 1524,
      "byteLength": 160,
      "byteStride": 20,
      "target": 34962
    }
  ],
  "samplers": [
    {
      "magFilter": 9728,
      "minFilter": 9728,
      "wrapS": 33071,
      "wrapT": 33071
    }
  ],
  "textures": [
    {
      "source": 0,
      "sampler": 0
    }
  ],
  "images": [
    {
      "mimeType": "image/png",
      "uri": "baseColor.png"
    }
  ],
  "buffers": [
    {
      "uri": "grass-3-named-nodes.bin",
      "byteLength": 1684
    }
  ],
  "materials": [
    {
      "alphaMode": "MASK",
      "alphaCutoff": 0.05,
      "pbrMetallicRoughness": {
        "metallicFactor": 0,
        "baseColorTexture": {
          "index": 0
        }
      }
    }
  ],
  "meshes": [
    {
      "primitives": [
        {
          "attributes": {
            "POSITION": 2,
            "NORMAL": 3,
            "TEXCOORD_0": 4
          },
          "mode": 4,
          "material": 0,
          "indices": 0
        }
      ]
    },
    {
      "primitives": [
        {
          "attributes": {
            "POSITION": 5,
            "TEXCOORD_0": 6,
            "NORMAL": 7
          },
          "mode": 4,
          "material": 0,
          "indices": 1
        }
      ]
    },
    {
      "primitives": [
        {
          "attributes": {
            "POSITION": 8,
            "TEXCOORD_0": 9,
            "NORMAL": 10
          },
          "mode": 4,
          "material": 0,
          "indices": 1
        }
      ]
    },
    {
      "primitives": [
        {
          "attributes": {
            "POSITION": 11,
            "TEXCOORD_0": 12,
            "NORMAL": 3
          },
          "mode": 4,
          "material": 0,
          "indices": 0
        }
      ]
    },
    {
      "primitives": [
        {
          "attributes": {
            "POSITION": 13,
            "TEXCOORD_0": 14,
            "NORMAL": 15
          },
          "mode": 4,
          "material": 0,
          "indices": 0
        }
      ]
    },
    {
      "primitives": [
        {
          "attributes": {
            "POSITION": 16,
            "TEXCOORD_0": 17,
            "NORMAL": 7
          },
          "mode": 4,
          "material": 0,
          "indices": 1
        }
      ]
    },
    {
      "primitives": [
        {
          "attributes": {
            "POSITION": 18,
            "TEXCOORD_0": 19,
            "NORMAL": 3
          },
          "mode": 4,
          "material": 0,
          "indices": 0
        }
      ]
    },
    {
      "primitives": [
        {
          "attributes": {
            "POSITION": 20,
            "TEXCOORD_0": 21,
            "NORMAL": 3
          },
          "mode": 4,
          "material": 0,
          "indices": 0
        }
      ]
    },
    {
      "primitives": [
        {
          "attributes": {
            "POSITION": 22,
            "TEXCOORD_0": 23,
            "NORMAL": 15
          },
          "mode": 4,
          "material": 0,
          "indices": 0
        }
      ]
    },
    {
      "primitives": [
        {
          "attributes": {
            "POSITION": 24,
            "TEXCOORD_0": 25,
            "NORMAL": 15
          },
          "mode": 4,
          "material": 0,
          "indices": 0
        }
      ]
    }
  ],
  "nodes": [
    {
      "name": "cube",
      "translation": [
        0,
        0,
        0.9281250000000001
      ],
      "rotation": [
        0,
        -0.19509032201612825,
        0,
        0.9807852804032304
      ],
      "mesh": 0
    },
    {
      "name": "cube",
      "translation": [
        0.6588432570618885,
        0.2187500000000001,
        0.44164355637051117
      ],
      "rotation": [
        0,
        0.19509032201612825,
        0,
        0.9807852804032304
      ],
      "mesh": 1
    },
    {
      "name": "cube",
      "translation": [
        0.6588432570618885,
        0.2187500000000001,
        0.44164355637051117
      ],
      "mesh": 2
    },
    {
      "name": "cube",
      "translation": [
        0.6588432570618885,
        0.2187500000000001,
        0.44164355637051117
      ],
      "rotation": [
        0,
        -0.19509032201612825,
        0,
        0.9807852804032304
      ],
      "mesh": 3
    },
    {
      "name": "cube",
      "translation": [
        0.3411567429381115,
        0.2187500000000001,
        0.44164355637051117
      ],
      "rotation": [
        0,
        -0.19509032201612825,
        0,
        0.9807852804032304
      ],
      "mesh": 4
    },
    {
      "name": "cube",
      "translation": [
        0.8531859282157725,
        0.21875000000000017,
        0.674113706172933
      ],
      "rotation": [
        0,
        -0.3826834323650898,
        0,
        0.9238795325112867
      ],
      "mesh": 5
    },
    {
      "name": "cube",
      "translation": [
        0.2640601885993511,
        0.15625000000000017,
        0.5348089708080676
      ],
      "rotation": [
        0,
        -0.19509032201612825,
        0,
        0.9807852804032304
      ],
      "mesh": 6
    },
    {
      "name": "cube",
      "translation": [
        0,
        0,
        0.07187499999999997
      ],
      "rotation": [
        0,
        -0.19509032201612825,
        0,
        0.9807852804032304
      ],
      "mesh": 7
    },
    {
      "name": "cube",
      "translation": [
        0.3411567429381115,
        0.2187500000000001,
        0.44164355637051117
      ],
      "rotation": [
        0,
        -0.19509032201612825,
        0,
        0.9807852804032304
      ],
      "mesh": 8
    },
    {
      "name": "cube",
      "translation": [
        0.6588432570618885,
        0.2187500000000001,
        0.44164355637051117
      ],
      "rotation": [
        0,
        0.19509032201612825,
        0,
        0.9807852804032304
      ],
      "mesh": 9
    }
  ],
  "scenes": [
    {
      "name": "blockbench_export",
      "nodes": [
        0,
        1,
        2,
        3,
        4,
        5,
        6,
        7,
        8,
        9
      ]
    }
  ],
  "scene": 0
}